<mxfile host="65bd71144e">
    <diagram id="m3BkpVxazEsqME0DdXml" name="Page-1">
        <mxGraphModel dx="1983" dy="514" grid="1" gridSize="10" guides="1" tooltips="1" connect="1" arrows="1" fold="1" page="1" pageScale="1" pageWidth="850" pageHeight="1100" math="0" shadow="0">
            <root>
                <mxCell id="0"/>
                <mxCell id="1" parent="0"/>
                <mxCell id="2" value="Serveur" style="shape=umlLifeline;perimeter=lifelinePerimeter;whiteSpace=wrap;html=1;container=1;collapsible=0;recursiveResize=0;outlineConnect=0;" parent="1" vertex="1">
                    <mxGeometry x="-320" y="40" width="100" height="360" as="geometry"/>
                </mxCell>
                <mxCell id="7" value="" style="html=1;points=[];perimeter=orthogonalPerimeter;" parent="2" vertex="1">
                    <mxGeometry x="45" y="190" width="10" height="70" as="geometry"/>
                </mxCell>
                <mxCell id="8" value="GameContext" style="shape=umlLifeline;perimeter=lifelinePerimeter;whiteSpace=wrap;html=1;container=1;collapsible=0;recursiveResize=0;outlineConnect=0;fillColor=default;" parent="1" vertex="1">
                    <mxGeometry x="-530" y="40" width="100" height="360" as="geometry"/>
                </mxCell>
                <mxCell id="9" value="" style="html=1;points=[];perimeter=orthogonalPerimeter;" parent="8" vertex="1">
                    <mxGeometry x="45" y="80" width="10" height="30" as="geometry"/>
                </mxCell>
                <mxCell id="19" value="" style="html=1;points=[];perimeter=orthogonalPerimeter;" parent="8" vertex="1">
                    <mxGeometry x="45" y="180" width="10" height="30" as="geometry"/>
                </mxCell>
                <mxCell id="26" value="" style="html=1;points=[];perimeter=orthogonalPerimeter;" parent="8" vertex="1">
                    <mxGeometry x="45" y="250" width="10" height="30" as="geometry"/>
                </mxCell>
                <mxCell id="11" value="PowerClairvoyance" style="shape=umlLifeline;perimeter=lifelinePerimeter;whiteSpace=wrap;html=1;container=1;collapsible=0;recursiveResize=0;outlineConnect=0;fillColor=default;" parent="1" vertex="1">
                    <mxGeometry x="-760" y="40" width="130" height="360" as="geometry"/>
                </mxCell>
                <mxCell id="12" value="" style="html=1;points=[];perimeter=orthogonalPerimeter;" parent="11" vertex="1">
                    <mxGeometry x="60" y="80" width="10" height="30" as="geometry"/>
                </mxCell>
                <mxCell id="16" value="" style="html=1;points=[];perimeter=orthogonalPerimeter;" parent="11" vertex="1">
                    <mxGeometry x="60" y="160" width="10" height="40" as="geometry"/>
                </mxCell>
                <mxCell id="27" value="" style="html=1;points=[];perimeter=orthogonalPerimeter;" parent="11" vertex="1">
                    <mxGeometry x="60" y="270" width="10" height="40" as="geometry"/>
                </mxCell>
                <mxCell id="14" value="" style="html=1;verticalAlign=bottom;labelBackgroundColor=none;endArrow=block;endFill=1;" parent="1" target="8" edge="1">
                    <mxGeometry width="160" relative="1" as="geometry">
                        <mxPoint x="-695" y="130" as="sourcePoint"/>
                        <mxPoint x="-890" y="130" as="targetPoint"/>
                    </mxGeometry>
                </mxCell>
                <mxCell id="15" value="register event &lt;br&gt;&quot;RESPONSE_CLAIRVOYANCE&quot;" style="edgeLabel;html=1;align=center;verticalAlign=middle;resizable=0;points=[];" parent="14" vertex="1" connectable="0">
                    <mxGeometry x="-0.4496" y="-1" relative="1" as="geometry">
                        <mxPoint x="52" y="-19" as="offset"/>
                    </mxGeometry>
                </mxCell>
                <mxCell id="17" value="" style="html=1;verticalAlign=bottom;labelBackgroundColor=none;endArrow=block;endFill=1;" parent="1" edge="1">
                    <mxGeometry width="160" relative="1" as="geometry">
                        <mxPoint x="-820" y="210" as="sourcePoint"/>
                        <mxPoint x="-695" y="210" as="targetPoint"/>
                    </mxGeometry>
                </mxCell>
                <mxCell id="18" value="user uses power" style="edgeLabel;html=1;align=center;verticalAlign=middle;resizable=0;points=[];" parent="17" vertex="1" connectable="0">
                    <mxGeometry x="-0.4496" y="-1" relative="1" as="geometry">
                        <mxPoint x="16" y="-11" as="offset"/>
                    </mxGeometry>
                </mxCell>
                <mxCell id="20" value="" style="html=1;verticalAlign=bottom;labelBackgroundColor=none;endArrow=block;endFill=1;exitX=0.9;exitY=0.671;exitDx=0;exitDy=0;exitPerimeter=0;" parent="1" source="16" edge="1">
                    <mxGeometry width="160" relative="1" as="geometry">
                        <mxPoint x="-680" y="230" as="sourcePoint"/>
                        <mxPoint x="-480" y="227" as="targetPoint"/>
                    </mxGeometry>
                </mxCell>
                <mxCell id="21" value="send event&lt;br&gt;&quot;USE_POWE_CLAIRVOYANCE&quot;" style="edgeLabel;html=1;align=center;verticalAlign=middle;resizable=0;points=[];" parent="20" vertex="1" connectable="0">
                    <mxGeometry x="-0.4496" y="-1" relative="1" as="geometry">
                        <mxPoint x="43" y="-18" as="offset"/>
                    </mxGeometry>
                </mxCell>
                <mxCell id="22" value="" style="html=1;verticalAlign=bottom;labelBackgroundColor=none;endArrow=block;endFill=1;" parent="1" source="19" target="2" edge="1">
                    <mxGeometry width="160" relative="1" as="geometry">
                        <mxPoint x="-400" y="270" as="sourcePoint"/>
                        <mxPoint x="-349.0000000000001" y="320.15999999999997" as="targetPoint"/>
                    </mxGeometry>
                </mxCell>
                <mxCell id="23" value="websocket message event&lt;br&gt;&quot;USE_POWE_CLAIRVOYANCE&quot;" style="edgeLabel;html=1;align=center;verticalAlign=middle;resizable=0;points=[];" parent="22" vertex="1" connectable="0">
                    <mxGeometry x="-0.4496" y="-1" relative="1" as="geometry">
                        <mxPoint x="43" y="-18" as="offset"/>
                    </mxGeometry>
                </mxCell>
                <mxCell id="24" value="" style="html=1;verticalAlign=bottom;labelBackgroundColor=none;endArrow=block;endFill=1;exitX=0.133;exitY=0.917;exitDx=0;exitDy=0;exitPerimeter=0;" parent="1" source="7" edge="1">
                    <mxGeometry width="160" relative="1" as="geometry">
                        <mxPoint x="-340" y="290" as="sourcePoint"/>
                        <mxPoint x="-480" y="294" as="targetPoint"/>
                    </mxGeometry>
                </mxCell>
                <mxCell id="25" value="websocket message event&lt;br&gt;&quot;RESPONSE_CLAIRVOYANCE&quot;" style="edgeLabel;html=1;align=center;verticalAlign=middle;resizable=0;points=[];" parent="24" vertex="1" connectable="0">
                    <mxGeometry x="-0.4496" y="-1" relative="1" as="geometry">
                        <mxPoint x="-40" y="-18" as="offset"/>
                    </mxGeometry>
                </mxCell>
                <mxCell id="30" value="" style="html=1;verticalAlign=bottom;labelBackgroundColor=none;endArrow=block;endFill=1;entryX=1.1;entryY=0.121;entryDx=0;entryDy=0;entryPerimeter=0;" parent="1" source="8" target="27" edge="1">
                    <mxGeometry width="160" relative="1" as="geometry">
                        <mxPoint x="-483.6700000000001" y="420.19000000000005" as="sourcePoint"/>
                        <mxPoint x="-690.0000000000001" y="420" as="targetPoint"/>
                    </mxGeometry>
                </mxCell>
                <mxCell id="31" value="dispatch event&lt;br&gt;&quot;RESPONSE_CLAIRVOYANCE&quot;" style="edgeLabel;html=1;align=center;verticalAlign=middle;resizable=0;points=[];" parent="30" vertex="1" connectable="0">
                    <mxGeometry x="-0.4496" y="-1" relative="1" as="geometry">
                        <mxPoint x="-40" y="-18" as="offset"/>
                    </mxGeometry>
                </mxCell>
                <mxCell id="32" value="" style="html=1;verticalAlign=bottom;labelBackgroundColor=none;endArrow=block;endFill=1;exitX=0.033;exitY=0.837;exitDx=0;exitDy=0;exitPerimeter=0;" parent="1" source="27" edge="1">
                    <mxGeometry width="160" relative="1" as="geometry">
                        <mxPoint x="-810" y="220" as="sourcePoint"/>
                        <mxPoint x="-810" y="343" as="targetPoint"/>
                    </mxGeometry>
                </mxCell>
                <mxCell id="33" value="display result" style="edgeLabel;html=1;align=center;verticalAlign=middle;resizable=0;points=[];" parent="32" vertex="1" connectable="0">
                    <mxGeometry x="-0.4496" y="-1" relative="1" as="geometry">
                        <mxPoint x="-30" y="-12" as="offset"/>
                    </mxGeometry>
                </mxCell>
            </root>
        </mxGraphModel>
    </diagram>
</mxfile>